# xmcd CD database file
#
# Track frame offsets:
#	150
#	12746
#	22592
#	33657
#	49008
#	59463
#	75941
#	91065
#	105050
#	118224
#	136794
#	144084
#	156119
#	168494
#	185066
#	193257
#	204508
#	226012
#	237139
#	250991
#
# Disc length: 3478 seconds
#
# Revision: 2
# Processed by: cddbd v1.5.1PL2 Copyright (c) Steve Scherf et al.
# Submitted via: CDex 1.51
#
DISCID=f80d9414
DTITLE=Various Artist - Country Hits 6
DYEAR=1900
DGENRE=Country
TTITLE0=Bob Wills - All Night Long
TTITLE1=Barbara Mandrell - After Closing Time
TTITLE2=Conway Twitty - Angel Wing
TTITLE3=Bonnie Taylor - You've Got To Hide Your Love Away
TTITLE4=Freddy Fender - A Man Can Cry
TTITLE5=Dottie West - Leavin's For Unbelievers
TTITLE6=Gene Watson - Carmen
TTITLE7=George Jones - A Good Year For The Roses
TTITLE8=Jennifer Wheatherly - No One Has To Tell You
TTITLE9=Jeff Turner - One Good Reason
TTITLE10=Jim Reeves - The Oklahoma Hills
TTITLE11=Johnny Cash - Thanks A Lot
TTITLE12=Kitty Wells - As Long As I Live
TTITLE13=Krüger Brothers - Baby Come Back To Me
TTITLE14=Mel Tillis - Burning Memories
TTITLE15=Porter Wagoner - Angel Band
TTITLE16=Rebecca Holden - The Freedom To Believe
TTITLE17=Terri Gibbs - A Little More Wine
TTITLE18=Anne Murray - A Little Good News
TTITLE19=Freddy Fender - Before The Next Teardrop Falls
EXTD=
EXTT0=
EXTT1=
EXTT2=
EXTT3=
EXTT4=
EXTT5=
EXTT6=
EXTT7=
EXTT8=
EXTT9=
EXTT10=
EXTT11=
EXTT12=
EXTT13=
EXTT14=
EXTT15=
EXTT16=
EXTT17=
EXTT18=
EXTT19=
PLAYORDER=
